<svg width="162" height="131" viewBox="0 0 162 131" fill="none" xmlns="http://www.w3.org/2000/svg">
<g clip-path="url(#clip0)">
<path d="M41.6205 54.379C49.7346 54.379 56.3124 47.8029 56.3124 39.691C56.3124 31.5791 49.7346 25.0031 41.6205 25.0031C33.5065 25.0031 26.9287 31.5791 26.9287 39.691C26.9287 47.8029 33.5065 54.379 41.6205 54.379Z" fill="#FF6584"/>
<path d="M162 35.1479V73.7798C162 81.2675 160.525 88.6819 157.659 95.5997C154.793 102.517 150.592 108.803 145.296 114.098C140 119.392 133.713 123.592 126.793 126.457C119.874 129.323 112.457 130.797 104.968 130.797H0V92.1653C0 71.5219 10.9744 53.439 27.4105 43.433C30.2428 41.7071 33.2214 40.2334 36.3118 39.029C38.1305 38.3187 39.9851 37.7039 41.8681 37.1873C41.9048 37.175 41.9433 37.1645 41.98 37.1558C42.5364 37.0036 43.0962 36.8602 43.6595 36.7255C43.691 36.7168 43.7208 36.7098 43.7522 36.7028C47.2241 35.8758 50.766 35.3763 54.3312 35.2109C54.7529 35.1917 55.1745 35.1759 55.5996 35.1672C55.7518 35.1619 55.9058 35.1584 56.0615 35.1584C56.3834 35.1514 56.707 35.1479 57.0324 35.1479H162Z" fill="#3F3D56"/>
<path d="M75.5765 105.902C33.9242 105.902 0.14308 117.131 0.00146484 131H151.151C151.01 117.131 117.229 105.902 75.5765 105.902Z" fill="#F2F2F2"/>
<g opacity="0.1">
<path opacity="0.1" d="M61.5811 124.917C69.3107 124.917 75.5768 123.177 75.5768 121.031C75.5768 118.884 69.3107 117.144 61.5811 117.144C53.8515 117.144 47.5854 118.884 47.5854 121.031C47.5854 123.177 53.8515 124.917 61.5811 124.917Z" fill="black"/>
</g>
<g opacity="0.1">
<path opacity="0.1" d="M91.8468 117.921C99.5764 117.921 105.842 116.181 105.842 114.035C105.842 111.888 99.5764 110.148 91.8468 110.148C84.1172 110.148 77.8511 111.888 77.8511 114.035C77.8511 116.181 84.1172 117.921 91.8468 117.921Z" fill="black"/>
</g>
<g opacity="0.1">
<path opacity="0.1" d="M61.581 124.529C68.5376 124.529 74.1771 122.963 74.1771 121.031C74.1771 119.099 68.5376 117.533 61.581 117.533C54.6243 117.533 48.9849 119.099 48.9849 121.031C48.9849 122.963 54.6243 124.529 61.581 124.529Z" fill="black"/>
</g>
<g opacity="0.1">
<path opacity="0.1" d="M91.8466 117.533C98.8032 117.533 104.443 115.967 104.443 114.035C104.443 112.103 98.8032 110.537 91.8466 110.537C84.89 110.537 79.2505 112.103 79.2505 114.035C79.2505 115.967 84.89 117.533 91.8466 117.533Z" fill="black"/>
</g>
<path d="M24.1426 51.9453C24.8189 51.9453 25.3672 51.3972 25.3672 50.721C25.3672 50.0448 24.8189 49.4967 24.1426 49.4967C23.4662 49.4967 22.918 50.0448 22.918 50.721C22.918 51.3972 23.4662 51.9453 24.1426 51.9453Z" fill="#F2F2F2"/>
<path d="M129.46 99.8678C130.136 99.8678 130.685 99.3197 130.685 98.6435C130.685 97.9673 130.136 97.4192 129.46 97.4192C128.784 97.4192 128.235 97.9673 128.235 98.6435C128.235 99.3197 128.784 99.8678 129.46 99.8678Z" fill="#F2F2F2"/>
<path d="M71.7276 60.5154C72.4039 60.5154 72.9522 59.9672 72.9522 59.2911C72.9522 58.6149 72.4039 58.0668 71.7276 58.0668C71.0512 58.0668 70.5029 58.6149 70.5029 59.2911C70.5029 59.9672 71.0512 60.5154 71.7276 60.5154Z" fill="#F2F2F2"/>
<path d="M132.434 52.6448C132.821 52.6448 133.134 52.3316 133.134 51.9452C133.134 51.5588 132.821 51.2456 132.434 51.2456C132.048 51.2456 131.734 51.5588 131.734 51.9452C131.734 52.3316 132.048 52.6448 132.434 52.6448Z" fill="#FF6584"/>
<path d="M26.9415 87.6248C27.328 87.6248 27.6413 87.3116 27.6413 86.9252C27.6413 86.5388 27.328 86.2256 26.9415 86.2256C26.555 86.2256 26.2417 86.5388 26.2417 86.9252C26.2417 87.3116 26.555 87.6248 26.9415 87.6248Z" fill="#FF6584"/>
<path d="M16.4449 101.673H16.1261V101.354H16.0639V101.673H15.7451V101.735H16.0639V102.054H16.1261V101.735H16.4449V101.673Z" fill="#F2F2F2"/>
<path d="M118.789 75.7879H118.47V75.4692H118.408V75.7879H118.089V75.8502H118.408V76.1688H118.47V75.8502H118.789V75.7879Z" fill="#F2F2F2"/>
<path d="M145.205 70.541H144.886V70.2223H144.824V70.541H144.505V70.6032H144.824V70.9219H144.886V70.6032H145.205V70.541Z" fill="#F2F2F2"/>
<path d="M88.3477 84.533H88.029V84.2144H87.9667V84.533H87.6479V84.5953H87.9667V84.914H88.029V84.5953H88.3477V84.533Z" fill="#F2F2F2"/>
<path d="M137.507 86.282H137.189V85.9634H137.126V86.282H136.808V86.3443H137.126V86.663H137.189V86.3443H137.507V86.282Z" fill="#F2F2F2"/>
<path d="M78.2008 93.8027H77.882V93.484H77.8197V93.8027H77.501V93.8649H77.8197V94.1836H77.882V93.8649H78.2008V93.8027Z" fill="#F2F2F2"/>
<path d="M100.594 94.1524H100.275V93.8337H100.213V94.1524H99.894V94.2147H100.213V94.5333H100.275V94.2147H100.594V94.1524Z" fill="#F2F2F2"/>
<path d="M16.7945 64.4195H16.4758V64.1008H16.4135V64.4195H16.0947V64.4818H16.4135V64.8004H16.4758V64.4818H16.7945V64.4195Z" fill="#F2F2F2"/>
<path d="M118.941 40.3475H118.438V50.5028H118.941V40.3475Z" fill="#E6E6E6"/>
<path d="M107.023 67.3445L102.396 78.0025L103.302 79.5107L103 80.0133L105.112 81.1194V80.5162L105.917 80.3151L109.336 74.0811L107.023 67.3445Z" fill="#E6E6E6"/>
<path d="M103.402 79.913C103.402 79.913 99.9829 85.242 103.805 86.0463C107.626 86.8507 104.509 80.4157 104.509 80.4157L103.402 79.913Z" fill="#E6E6E6"/>
<path d="M108.33 77.4998L107.123 81.4211L106.621 86.4485L105.715 88.2583L106.721 96.4027L108.33 98.0114L109.034 106.055V109.675L110.945 112.993L108.484 116.485C108.368 116.649 108.299 116.841 108.283 117.042C108.268 117.242 108.307 117.443 108.397 117.623C108.486 117.803 108.623 117.955 108.792 118.064C108.961 118.172 109.157 118.233 109.357 118.239C109.901 118.253 110.617 118.1 111.549 117.618C114.465 116.11 114.365 114.702 114.365 114.702C114.365 114.702 116.175 114.702 116.276 113.295C116.376 111.887 115.169 101.832 115.169 101.832L114.063 97.5087V85.7447H114.465L114.666 95.7994L115.572 99.5197L115.672 101.128L116.98 117.216C116.98 117.216 122.813 118.825 123.115 117.518C123.416 116.211 120.902 115.406 120.902 115.406L122.411 112.49V106.86L121.908 105.653L121.003 97.5087L122.511 95.9L123.316 94.8945V86.8507L122.31 83.7337L122.008 81.1195L120.399 77.0976C120.399 77.0976 113.057 74.6845 108.33 77.4998Z" fill="white"/>
<path d="M121.405 54.7761C121.405 55.9855 121.118 57.1776 120.567 58.2545C120.017 59.3314 119.218 60.2622 118.238 60.9705C117.257 61.6787 116.122 62.1442 114.927 62.3286C113.731 62.5129 112.509 62.411 111.36 62.0311C110.212 61.6512 109.17 61.0042 108.32 60.1432C107.471 59.2823 106.837 58.2321 106.473 57.0789C106.108 55.9257 106.023 54.7024 106.223 53.5097C106.424 52.3171 106.905 51.189 107.626 50.2183L107.628 50.2163C108.587 48.9269 109.928 47.9725 111.46 47.4887C112.993 47.0048 114.639 47.0162 116.164 47.5211C117.69 48.026 119.017 48.9989 119.958 50.3013C120.899 51.6037 121.405 53.1695 121.405 54.7761Z" fill="#605891"/>
<g opacity="0.1">
<path opacity="0.1" d="M120.319 51.6078L119.695 55.1782C115.009 43.018 107.556 50.4877 107.427 50.6184C108.198 49.5827 109.218 48.759 110.393 48.224C111.567 47.689 112.859 47.4603 114.146 47.559C115.433 47.6578 116.674 48.081 117.754 48.7889C118.833 49.4969 119.716 50.4667 120.319 51.6078Z" fill="black"/>
</g>
<path d="M120.52 51.2057L119.896 54.7761C115.211 42.6159 107.757 50.0856 107.628 50.2163C108.399 49.1806 109.419 48.3569 110.594 47.8219C111.769 47.2869 113.06 47.0582 114.347 47.1569C115.634 47.2557 116.875 47.6788 117.955 48.3868C119.034 49.0948 119.917 50.0646 120.52 51.2057Z" fill="white"/>
<path d="M119.472 49.6982L120.52 53.3344C120.52 53.3344 118.345 59.8518 108.259 60.079L107.928 61.01L106.822 61.3116L106.319 63.4231L107.727 76.7959C107.727 76.7959 107.123 78.103 108.129 78.0025C108.129 78.0025 114.767 75.7904 120.5 77.8014C120.5 77.8014 121.707 78.3041 121.405 77.1981C121.405 77.1981 125.428 74.6844 125.126 72.0702C124.824 69.4559 125.428 57.2897 125.428 57.2897C125.428 57.2897 126.031 53.7705 124.221 52.9662C124.221 52.9662 121.562 49.2456 119.472 49.6982Z" fill="white"/>
<path d="M117.267 75.1051C117.267 75.1051 110.966 75.7377 112.71 79.2312C114.454 82.7247 117.56 76.2841 117.56 76.2841L117.267 75.1051Z" fill="#E6E6E6"/>
<path d="M120.5 59.5017C120.5 59.5017 119.393 60.8088 119.795 62.9203C120.198 65.0318 121.706 69.7575 121.706 69.7575L116.376 74.6844L117.985 76.8964L125.226 73.1761L126.836 72.1707C126.436 68.1038 125.44 64.1178 123.881 60.3404L123.617 59.7028C123.617 59.7028 121.706 58.8984 120.5 59.5017Z" fill="#E6E6E6"/>
<path d="M119.997 55.9323C121.024 55.9323 121.857 55.0995 121.857 54.0722C121.857 53.0448 121.024 52.212 119.997 52.212C118.969 52.212 118.136 53.0448 118.136 54.0722C118.136 55.0995 118.969 55.9323 119.997 55.9323Z" fill="#E6E6E6"/>
<path d="M118.689 41.6546C119.439 41.6546 120.047 41.0469 120.047 40.2972C120.047 39.5475 119.439 38.9398 118.689 38.9398C117.939 38.9398 117.332 39.5475 117.332 40.2972C117.332 41.0469 117.939 41.6546 118.689 41.6546Z" fill="#E6E6E6"/>
<path d="M84.149 61.621H83.8303V61.3024H83.768V61.621H83.4492V61.6833H83.768V62.002H83.8303V61.6833H84.149V61.621Z" fill="#F2F2F2"/>
<path d="M112.84 51.8267H112.521V51.5081H112.459V51.8267H112.14V51.889H112.459V52.2077H112.521V51.889H112.84V51.8267Z" fill="#F2F2F2"/>
<path d="M109.691 54.8H109.372V54.4813H109.31V54.8H108.991V54.8623H109.31V55.1809H109.372V54.8623H109.691V54.8Z" fill="#F2F2F2"/>
<path d="M97.2701 47.3979C97.6566 47.3979 97.9699 47.0846 97.9699 46.6983C97.9699 46.3119 97.6566 45.9987 97.2701 45.9987C96.8836 45.9987 96.5703 46.3119 96.5703 46.6983C96.5703 47.0846 96.8836 47.3979 97.2701 47.3979Z" fill="#F2F2F2"/>
<path d="M62.7983 51.6295C62.7983 100.434 56.6597 100.434 49.0896 100.434C45.1758 100.434 41.645 100.434 39.1481 93.6926C38.4303 91.755 37.7961 89.2567 37.2645 86.0407C36.0673 78.8116 35.3809 67.9479 35.3809 51.6295C35.3809 45.3544 36.1239 39.2028 37.2645 33.4571C37.8129 30.691 38.4533 28.0211 39.1481 25.4747C39.9979 22.3571 40.9292 19.4256 41.869 16.7432C42.4989 14.9396 43.1352 13.2469 43.7526 11.6838C46.6053 4.46931 49.0896 0 49.0896 0C49.0896 0 62.7983 24.6754 62.7983 51.6295Z" fill="#F2F2F2"/>
<g opacity="0.1">
<path opacity="0.1" d="M43.7528 11.6838V96.7726H41.8691V16.7432C42.4991 14.9396 43.1354 13.2469 43.7528 11.6838Z" fill="black"/>
</g>
<path d="M48.6708 41.2199C52.832 41.2199 56.2053 37.8475 56.2053 33.6874C56.2053 29.5272 52.832 26.1548 48.6708 26.1548C44.5096 26.1548 41.1362 29.5272 41.1362 33.6874C41.1362 37.8475 44.5096 41.2199 48.6708 41.2199Z" fill="#3F3D56"/>
<path d="M65.2051 95.8309C63.5298 91.7082 61.3788 90.997 59.9727 91.0588V90.3907H37.9969V91.0588C36.5909 90.997 34.4399 91.7082 32.7646 95.8309C30.0438 102.527 34.439 114.035 34.439 114.035C34.439 114.035 32.0901 97.9846 39.89 97.879C40.5655 98.7599 41.3944 99.5117 42.3369 100.098V104.415H54.933V100.491C56.1643 99.8671 57.2397 98.9743 58.0797 97.879C65.8796 97.9846 63.5307 114.035 63.5307 114.035C63.5307 114.035 67.9259 102.527 65.2051 95.8309Z" fill="#605891"/>
<path d="M48.6712 39.5459C51.9077 39.5459 54.5314 36.9229 54.5314 33.6873C54.5314 30.4516 51.9077 27.8286 48.6712 27.8286C45.4347 27.8286 42.811 30.4516 42.811 33.6873C42.811 36.9229 45.4347 39.5459 48.6712 39.5459Z" fill="#605891"/>
<path d="M148.006 35.1479H147.656C147.681 38.9362 149.203 42.5609 151.89 45.2322C154.577 47.9036 158.211 49.405 162 49.4093V49.0595C158.304 49.0555 154.758 47.591 152.137 44.9852C149.516 42.3794 148.031 38.8435 148.006 35.1479Z" fill="#605891"/>
<path d="M141.533 35.1479H141.184C141.21 40.652 143.414 45.9219 147.315 49.8066C151.215 53.6912 156.495 55.8748 162 55.8806V55.5308C156.588 55.5247 151.397 53.3778 147.563 49.5588C143.728 45.7399 141.56 40.5591 141.533 35.1479Z" fill="#605891"/>
<path d="M134.884 35.1479H134.534C134.577 50.2523 146.881 62.5268 162 62.5268V62.177C147.074 62.177 134.927 50.0599 134.884 35.1479Z" fill="#605891"/>
</g>
<defs>
<clipPath id="clip0">
<rect width="162" height="131" fill="white"/>
</clipPath>
</defs>
</svg>
