<svg width="19" height="18" viewBox="0 0 19 18" fill="none" xmlns="http://www.w3.org/2000/svg">
<path d="M4.23047 4.42578C3.97266 4.61328 3.84375 4.82422 3.84375 5.05859C3.84375 5.28516 4.01562 5.39844 4.35938 5.39844C4.50781 5.39844 4.69922 5.35547 4.93359 5.26953H4.94531C4.98438 5.26953 5.00391 5.35156 5.00391 5.51562C5.00391 5.67188 4.98828 5.76562 4.95703 5.79688C4.15234 6.36719 3.47266 6.65234 2.91797 6.65234C2.36328 6.65234 1.96094 6.49609 1.71094 6.18359C1.46094 5.87109 1.33594 5.46484 1.33594 4.96484C1.33594 4.45703 1.61328 3.92188 2.16797 3.35938C2.72266 2.78906 3.46875 2.26562 4.40625 1.78906C5.34375 1.30469 6.50391 0.90625 7.88672 0.59375C9.27734 0.28125 10.8359 0.125 12.5625 0.125C14.2969 0.125 15.7461 0.464844 16.9102 1.14453C18.0742 1.81641 18.6562 2.58594 18.6562 3.45312C18.6562 4.3125 18.3516 5.1875 17.7422 6.07812C17.1406 6.96875 16.3828 7.74609 15.4688 8.41016C14.5625 9.06641 13.5547 9.60547 12.4453 10.0273C11.3359 10.4492 10.3438 10.6602 9.46875 10.6602C8.59375 10.6602 7.91406 10.3086 7.42969 9.60547C6.24219 11.4727 5.4375 12.75 5.01562 13.4375C4.59375 14.1172 4.23438 14.6914 3.9375 15.1602C3.64844 15.6211 3.42188 15.9844 3.25781 16.25C3.10156 16.5156 3.01953 16.6523 3.01172 16.6602C2.84766 16.8398 2.67188 16.9297 2.48438 16.9297L1.91016 17.0352L1.62891 17.0117H1.42969C0.96875 17.0117 0.738281 16.8672 0.738281 16.5781C0.738281 16.2109 1.50781 14.8281 3.04688 12.4297C4.58594 10.0312 6.03516 7.85547 7.39453 5.90234C8.76172 3.94922 9.55859 2.85156 9.78516 2.60938C10.0117 2.36719 10.2109 2.22656 10.3828 2.1875C10.5625 2.14062 10.8477 2.11719 11.2383 2.11719H11.8242C11.9258 2.11719 11.9766 2.19922 11.9766 2.36328C11.9766 2.51953 11.957 2.62891 11.918 2.69141C11.2305 3.65234 9.98828 5.55078 8.19141 8.38672C8.25391 8.51172 8.35547 8.58984 8.49609 8.62109C8.64453 8.65234 8.80078 8.66797 8.96484 8.66797H9.30469C10.0234 8.66797 10.8008 8.49609 11.6367 8.15234C12.4727 7.80078 13.207 7.38281 13.8398 6.89844C14.4727 6.41406 15 5.91016 15.4219 5.38672C15.8516 4.85547 16.0664 4.40234 16.0664 4.02734C16.0664 3.65234 15.9492 3.31641 15.7148 3.01953C15.4805 2.72266 15.1602 2.48828 14.7539 2.31641C13.957 1.98047 12.9883 1.8125 11.8477 1.8125C10.7148 1.8125 9.34375 2.10938 7.73438 2.70312C6.13281 3.28906 4.96484 3.86328 4.23047 4.42578Z" fill="white"/>
</svg>
