<svg width="362" height="255" viewBox="0 0 362 255" fill="none" xmlns="http://www.w3.org/2000/svg">
<g clip-path="url(#clip0)">
<path d="M184.881 254.46C195.769 254.46 204.595 245.637 204.595 234.754C204.595 223.871 195.769 215.048 184.881 215.048C173.993 215.048 165.167 223.871 165.167 234.754C165.167 245.637 173.993 254.46 184.881 254.46Z" fill="#605891"/>
<path d="M302.654 253.352C313.683 250.042 325.408 246.589 334.155 238.718C341.971 231.685 347.248 220.945 344.01 210.397C340.778 199.871 331.099 192.852 321.106 189.362C315.438 187.382 309.509 186.283 303.582 185.42C297.138 184.482 290.666 183.714 284.197 182.974C258.004 179.98 231.712 178.15 205.322 177.486C192.3 177.158 179.281 177.166 166.257 177.355C154.626 177.524 142.377 177.52 131.587 172.578C123.196 168.736 115.581 161.745 113.243 152.559C110.544 141.954 115.522 131.155 122.662 123.475C126.426 119.427 130.825 116.019 135.364 112.886C140.287 109.487 145.381 106.329 150.587 103.381C160.838 97.5779 171.556 92.6389 182.629 88.6156C188.091 86.6302 193.635 84.9174 199.227 83.3373C203.948 82.003 208.684 80.6668 213.247 78.8489C222.069 75.3346 230.459 69.3817 232.702 59.6225C234.828 50.373 231.244 40.3321 224.96 33.4609C217.69 25.5114 206.729 22.0265 196.22 21.4627C184.423 20.8297 172.897 23.7811 161.808 27.5268C149.981 31.5219 138.409 36.1156 126.332 39.3516C114.356 42.5574 102.148 44.8256 89.8196 46.1357C83.7844 46.7781 77.5668 47.5034 71.4957 47.0116C66.4076 46.5995 61.3454 45.1037 57.5955 41.4942C54.3802 38.3992 52.4648 34.1457 53.1233 29.657C53.2429 28.8417 54.482 29.1883 54.3631 29.9986C53.5615 35.4627 57.2773 40.4977 61.8562 43.0769C67.1482 46.0577 73.5878 46.0617 79.4797 45.7208C92.2548 44.9496 104.943 43.1161 117.414 40.2394C129.668 37.4418 141.484 33.4425 153.287 29.1704C164.496 25.1129 175.957 21.1529 187.932 20.274C198.323 19.5115 209.254 21.0247 218.307 26.4527C226.262 31.2231 232.113 39.1787 233.977 48.308C235.799 57.2289 233.276 66.2079 226.52 72.4333C219.525 78.8789 209.934 81.6346 200.996 84.1725C189.659 87.3916 178.566 91.1544 167.828 96.0401C156.944 100.978 146.505 106.844 136.628 113.573C127.094 120.085 117.685 128.28 114.67 139.898C113.265 145.309 113.525 151.049 115.875 156.161C117.965 160.706 121.406 164.529 125.416 167.478C134.981 174.514 147.038 175.959 158.593 176.103C171.57 176.264 184.548 175.826 197.53 176.039C223.987 176.473 250.389 178.083 276.737 180.868C283.34 181.567 289.933 182.339 296.519 183.184C302.443 183.945 308.386 184.701 314.21 186.052C324.565 188.455 334.641 193.074 341.077 201.85C343.934 205.654 345.703 210.162 346.197 214.893C346.648 219.829 345.439 224.775 343.206 229.167C338.264 238.887 329.006 245.07 319.175 249.132C313.909 251.307 308.447 252.955 302.996 254.592C302.201 254.83 301.862 253.59 302.654 253.352L302.654 253.352Z" fill="#CACACA"/>
<path d="M53.9536 40.0538C59.6342 40.0538 64.2392 35.4508 64.2392 29.7726C64.2392 24.0945 59.6342 19.4915 53.9536 19.4915C48.273 19.4915 43.668 24.0945 43.668 29.7726C43.668 35.4508 48.273 40.0538 53.9536 40.0538Z" fill="#CACACA"/>
<path d="M125.31 59.5452C130.991 59.5452 135.596 54.9422 135.596 49.264C135.596 43.5859 130.991 38.9828 125.31 38.9828C119.629 38.9828 115.024 43.5859 115.024 49.264C115.024 54.9422 119.629 59.5452 125.31 59.5452Z" fill="#CACACA"/>
<path d="M185.738 20.5624C191.419 20.5624 196.024 15.9593 196.024 10.2812C196.024 4.60305 191.419 0 185.738 0C180.058 0 175.453 4.60305 175.453 10.2812C175.453 15.9593 180.058 20.5624 185.738 20.5624Z" fill="#CACACA"/>
<path d="M223.452 64.2575C229.133 64.2575 233.738 59.6544 233.738 53.9763C233.738 48.2981 229.133 43.6951 223.452 43.6951C217.772 43.6951 213.167 48.2981 213.167 53.9763C213.167 59.6544 217.772 64.2575 223.452 64.2575Z" fill="#CACACA"/>
<path d="M172.453 114.807C178.133 114.807 182.738 110.204 182.738 104.526C182.738 98.8474 178.133 94.2443 172.453 94.2443C166.772 94.2443 162.167 98.8474 162.167 104.526C162.167 110.204 166.772 114.807 172.453 114.807Z" fill="#CACACA"/>
<path d="M107.739 139.224C113.419 139.224 118.024 134.621 118.024 128.943C118.024 123.265 113.419 118.662 107.739 118.662C102.058 118.662 97.4531 123.265 97.4531 128.943C97.4531 134.621 102.058 139.224 107.739 139.224Z" fill="#CACACA"/>
<path d="M176.31 177.351C181.99 177.351 186.595 172.748 186.595 167.069C186.595 161.391 181.99 156.788 176.31 156.788C170.629 156.788 166.024 161.391 166.024 167.069C166.024 172.748 170.629 177.351 176.31 177.351Z" fill="#CACACA"/>
<path d="M250.023 198.77C255.704 198.77 260.309 194.167 260.309 188.489C260.309 182.81 255.704 178.207 250.023 178.207C244.342 178.207 239.737 182.81 239.737 188.489C239.737 194.167 244.342 198.77 250.023 198.77Z" fill="#CACACA"/>
<path d="M336.165 194.058C341.846 194.058 346.451 189.455 346.451 183.776C346.451 178.098 341.846 173.495 336.165 173.495C330.484 173.495 325.879 178.098 325.879 183.776C325.879 189.455 330.484 194.058 336.165 194.058Z" fill="#CACACA"/>
<path d="M182.769 29.1315C151.958 29.3491 126.731 54.3761 126.293 85.1711C126.289 85.4554 126.287 87.4546 126.288 90.0693C126.288 93.9031 127.811 97.5798 130.523 100.291C133.235 103.002 136.914 104.525 140.749 104.526H140.749C142.65 104.525 144.533 104.15 146.289 103.422C148.046 102.694 149.641 101.628 150.985 100.283C152.329 98.9384 153.394 97.3424 154.12 95.5861C154.847 93.8298 155.22 91.9476 155.218 90.0471C155.217 88.2684 155.216 87.0374 155.216 86.9618C155.215 82.2025 156.453 77.5249 158.809 73.3891C161.165 69.2533 164.558 65.8019 168.653 63.3743C172.749 60.9466 177.406 59.6264 182.167 59.5436C186.927 59.4607 191.627 60.618 195.805 62.9016C199.982 65.1852 203.493 68.5165 205.992 72.5677C208.491 76.619 209.891 81.2507 210.056 86.0071C210.221 90.7636 209.144 95.481 206.932 99.6954C204.719 103.91 201.448 107.476 197.438 110.043L197.443 110.049C197.443 110.049 176.86 123.294 170.585 141.465L170.59 141.466C169.486 145.188 168.927 149.05 168.93 152.933C168.93 154.529 169.024 168.492 169.205 179.826C169.269 183.736 170.868 187.465 173.657 190.208C176.446 192.95 180.202 194.487 184.115 194.486H184.115C186.081 194.486 188.028 194.097 189.843 193.342C191.658 192.587 193.306 191.481 194.692 190.087C196.078 188.693 197.174 187.039 197.918 185.22C198.662 183.401 199.039 181.453 199.027 179.488C198.964 169.109 198.93 157.023 198.93 156.146C198.93 144.989 209.697 133.872 218.542 126.623C228.728 118.275 236.057 106.899 239.001 94.0659C239.652 91.4239 240.011 88.7183 240.072 85.9979C240.072 78.4954 238.587 71.067 235.702 64.1407C232.817 57.2144 228.59 50.9272 223.263 45.6413C217.937 40.3554 211.616 36.1752 204.666 33.3417C197.716 30.5082 190.274 29.0774 182.769 29.1315Z" fill="#605891"/>
<path d="M361.49 255H0.510277C0.375196 255 0.245785 254.946 0.150407 254.85C0.0550282 254.754 0.00146484 254.625 0.00146484 254.49C0.00146484 254.355 0.0550282 254.225 0.150407 254.13C0.245785 254.034 0.375196 253.98 0.510277 253.98H361.49C361.625 253.98 361.755 254.034 361.851 254.129C361.946 254.225 362 254.355 362 254.49C362 254.625 361.946 254.755 361.851 254.851C361.755 254.946 361.625 255 361.49 255Z" fill="#3F3D56"/>
<path d="M269.333 116.947C276.433 116.947 282.19 111.193 282.19 104.095C282.19 96.9976 276.433 91.2438 269.333 91.2438C262.232 91.2438 256.476 96.9976 256.476 104.095C256.476 111.193 262.232 116.947 269.333 116.947Z" fill="#2F2E41"/>
<path d="M245.574 249.374H240.32L237.82 229.117H245.575L245.574 249.374Z" fill="#A0616A"/>
<path d="M236.567 247.873H246.7V254.251H230.187C230.187 253.413 230.352 252.584 230.673 251.81C230.993 251.037 231.463 250.334 232.056 249.741C232.648 249.149 233.351 248.679 234.125 248.359C234.9 248.038 235.729 247.873 236.567 247.873Z" fill="#2F2E41"/>
<path d="M286.288 249.374H281.034L278.534 229.117H286.289L286.288 249.374Z" fill="#A0616A"/>
<path d="M277.281 247.873H287.414V254.251H270.901C270.901 253.413 271.066 252.584 271.387 251.81C271.707 251.037 272.177 250.334 272.77 249.741C273.362 249.149 274.065 248.679 274.839 248.359C275.613 248.038 276.443 247.873 277.281 247.873Z" fill="#2F2E41"/>
<path d="M267.379 117.022C273.192 117.022 277.905 112.311 277.905 106.5C277.905 100.689 273.192 95.9788 267.379 95.9788C261.565 95.9788 256.853 100.689 256.853 106.5C256.853 112.311 261.565 117.022 267.379 117.022Z" fill="#A0616A"/>
<path d="M273.652 150.965L278.362 140.148C279.506 137.611 279.834 134.781 279.3 132.049C278.767 129.318 277.398 126.819 275.384 124.898C274.97 124.489 274.53 124.107 274.068 123.754C271.744 121.937 268.88 120.946 265.93 120.939C263.946 120.947 261.987 121.382 260.187 122.216C260.032 122.284 259.882 122.357 259.728 122.43C259.432 122.571 259.141 122.726 258.858 122.884C257.013 123.943 255.443 125.421 254.274 127.198C253.105 128.974 252.371 131.001 252.13 133.114L250.051 150.523C249.528 151.89 230.877 201.24 237.4 238.916C237.469 239.318 237.666 239.688 237.96 239.971C238.255 240.254 238.632 240.435 239.037 240.488L245.65 241.388C246.133 241.454 246.623 241.335 247.021 241.054C247.419 240.773 247.697 240.352 247.797 239.876L258.892 187.009C258.962 186.68 259.139 186.385 259.396 186.169C259.653 185.953 259.975 185.829 260.311 185.818C260.647 185.807 260.976 185.908 261.247 186.106C261.519 186.304 261.715 186.587 261.807 186.91L277.484 242.506C277.595 242.91 277.837 243.266 278.17 243.52C278.504 243.774 278.912 243.911 279.331 243.911C279.456 243.91 279.581 243.899 279.704 243.877L287.782 242.322C288.252 242.234 288.672 241.974 288.959 241.593C289.247 241.212 289.382 240.737 289.338 240.261C288.151 227.028 281.842 160.745 273.652 150.965Z" fill="#2F2E41"/>
<path d="M226.471 115.256C226.398 115.882 226.463 116.516 226.662 117.114C226.861 117.711 227.188 118.258 227.621 118.716C228.054 119.173 228.582 119.53 229.167 119.762C229.753 119.993 230.383 120.094 231.012 120.056L236.896 134.189L241.346 127.594L235.077 115.184C234.943 114.132 234.428 113.166 233.629 112.469C232.83 111.771 231.803 111.391 230.742 111.4C229.681 111.409 228.661 111.806 227.874 112.517C227.086 113.228 226.588 114.203 226.471 115.256L226.471 115.256Z" fill="#A0616A"/>
<path d="M266.795 165.196C267.42 165.121 268.022 164.91 268.557 164.578C269.092 164.246 269.548 163.8 269.893 163.273C270.237 162.745 270.461 162.149 270.55 161.525C270.639 160.902 270.59 160.266 270.406 159.664L282.786 150.651L275.333 147.862L264.72 156.848C263.728 157.223 262.908 157.949 262.415 158.888C261.923 159.827 261.792 160.914 262.048 161.943C262.304 162.972 262.928 163.872 263.803 164.471C264.678 165.071 265.743 165.328 266.795 165.196Z" fill="#A0616A"/>
<path d="M246.614 143.612C246.14 143.611 245.666 143.565 245.201 143.472C244.075 143.258 243.019 142.77 242.126 142.052C241.233 141.334 240.531 140.407 240.08 139.353L231.837 129.306C231.663 129.094 231.536 128.846 231.465 128.581C231.394 128.316 231.381 128.038 231.426 127.767C231.471 127.496 231.574 127.238 231.727 127.01C231.88 126.782 232.08 126.589 232.313 126.444L238.178 122.815C238.395 122.681 238.636 122.592 238.887 122.551C239.138 122.511 239.395 122.52 239.643 122.58C239.891 122.639 240.124 122.747 240.33 122.897C240.536 123.047 240.71 123.236 240.842 123.454L246.652 133.021L257.778 124.802C258.664 124.338 259.687 124.208 260.661 124.435C261.635 124.663 262.495 125.233 263.083 126.042C263.671 126.851 263.948 127.844 263.864 128.84C263.78 129.837 263.34 130.769 262.625 131.468L251.52 141.594C250.215 142.887 248.452 143.612 246.614 143.612Z" fill="#2F2E41"/>
<path d="M276.678 158.722C276.663 158.722 276.648 158.722 276.633 158.721C276.363 158.715 276.096 158.651 275.852 158.536C275.608 158.42 275.39 158.254 275.214 158.049L270 151.968C269.822 151.761 269.691 151.519 269.614 151.257C269.537 150.996 269.516 150.721 269.554 150.45C269.591 150.18 269.685 149.921 269.83 149.69C269.975 149.459 270.167 149.261 270.394 149.11L280.158 142.604L271.313 131.975C270.798 131.117 270.61 130.103 270.781 129.118C270.953 128.133 271.473 127.243 272.247 126.61C273.021 125.976 273.997 125.643 274.997 125.67C275.997 125.696 276.954 126.082 277.693 126.756L288.443 137.257C289.289 138.029 289.935 138.995 290.325 140.072C290.715 141.149 290.838 142.305 290.684 143.44C290.529 144.575 290.101 145.655 289.436 146.588C288.771 147.522 287.89 148.28 286.868 148.797L278.082 158.116C277.901 158.307 277.684 158.46 277.442 158.564C277.201 158.668 276.941 158.722 276.678 158.722Z" fill="#2F2E41"/>
<path d="M264.702 136.318C264.618 136.318 264.535 136.312 264.452 136.302C264.089 136.258 263.746 136.11 263.464 135.877C263.182 135.644 262.973 135.335 262.862 134.987L258.943 122.98C258.845 122.676 258.86 122.347 258.986 122.054C259.112 121.761 259.339 121.523 259.627 121.384L259.754 121.324C259.869 121.269 259.983 121.215 260.1 121.163C261.927 120.316 263.916 119.875 265.929 119.868C268.544 119.873 271.1 120.641 273.284 122.077C273.577 122.272 273.782 122.574 273.854 122.918C273.926 123.262 273.86 123.621 273.671 123.917L266.321 135.427C266.148 135.7 265.909 135.925 265.626 136.081C265.343 136.237 265.025 136.318 264.702 136.318Z" fill="#E6E6E6"/>
<path d="M279.469 98.358C281.793 98.358 283.676 96.4752 283.676 94.1527C283.676 91.8302 281.793 89.9474 279.469 89.9474C277.146 89.9474 275.262 91.8302 275.262 94.1527C275.262 96.4752 277.146 98.358 279.469 98.358Z" fill="#2F2E41"/>
<path d="M265.047 89.5303C262.092 89.5303 259.258 90.7038 257.168 92.7926C255.078 94.8813 253.904 97.7143 253.904 100.668V105.381H259.703L262.476 100.668L263.308 105.381H280.904L276.19 100.668C276.19 97.7143 275.016 94.8813 272.926 92.7926C270.836 90.7038 268.002 89.5303 265.047 89.5303Z" fill="#2F2E41"/>
<path d="M281.631 91.2721C282.097 89.818 283.06 88.5744 284.352 87.7599C285.643 86.9454 287.181 86.6122 288.694 86.8188C291.376 87.2669 293.495 89.4211 294.758 91.8271C296.022 94.2331 296.605 96.9259 297.454 99.5071C298.303 102.088 299.507 104.684 301.651 106.354C303.794 108.025 307.084 108.478 309.189 106.76C308.949 108.551 308.151 110.221 306.909 111.535C305.666 112.848 304.042 113.737 302.266 114.078C300.491 114.418 298.653 114.191 297.013 113.43C295.373 112.669 294.014 111.412 293.128 109.836C292.017 107.86 291.73 105.545 291.401 103.303C291.071 101.061 290.643 98.7405 289.317 96.9025C287.991 95.0645 285.508 93.864 283.401 94.7012L281.631 91.2721Z" fill="#2F2E41"/>
<path d="M144.833 97.6878C140.997 97.6873 137.319 96.1641 134.607 93.4531C131.895 90.7421 130.371 87.0654 130.371 83.2316C130.371 80.6168 130.373 78.6177 130.377 78.3333C130.499 69.3773 132.755 60.5794 136.959 52.6694C130.052 62.1208 126.254 73.4842 126.091 85.1875C126.087 85.4718 126.085 87.4709 126.085 90.0857C126.086 93.9195 127.609 97.5963 130.321 100.307C133.033 103.018 136.712 104.541 140.547 104.542C143.699 104.541 146.764 103.511 149.277 101.61C151.79 99.7087 153.613 97.0394 154.47 94.0077C151.822 96.3813 148.39 97.6921 144.833 97.6878Z" fill="#3F3D56"/>
<path d="M183.749 59.5921C188.183 59.8037 192.5 61.0879 196.328 63.3344C200.156 65.5808 203.382 68.7224 205.728 72.4894C208.074 76.2563 209.47 80.5361 209.796 84.9613C210.123 89.3864 209.37 93.8247 207.603 97.8951C210.159 94.8941 212.038 91.3774 213.112 87.5848C214.185 83.7922 214.428 79.8128 213.823 75.9179C213.219 72.023 211.781 68.3043 209.608 65.0152C207.435 61.7261 204.579 58.9439 201.233 56.8584C197.887 54.773 194.13 53.4331 190.219 52.9304C186.308 52.4276 182.335 52.7737 178.57 53.945C174.805 55.1164 171.337 57.0854 168.402 59.7179C165.467 62.3505 163.135 65.5846 161.564 69.1997C164.279 66.0072 167.691 63.4805 171.538 61.8148C175.384 60.149 179.562 59.3885 183.749 59.5921Z" fill="#3F3D56"/>
<path d="M188.198 187.648C184.286 187.649 180.53 186.112 177.74 183.37C174.951 180.627 173.352 176.898 173.289 172.988C173.107 161.654 173.013 147.691 173.013 146.095C173.011 142.213 173.57 138.35 174.673 134.628L174.668 134.627C175.32 132.758 176.107 130.94 177.023 129.186C174.211 132.932 171.973 137.076 170.382 141.481L170.388 141.482C169.284 145.205 168.725 149.067 168.728 152.949C168.728 154.545 168.822 168.509 169.003 179.842C169.066 183.752 170.665 187.481 173.455 190.224C176.244 192.967 180 194.503 183.913 194.502C187.139 194.502 190.278 193.456 192.859 191.521C195.44 189.586 197.324 186.867 198.228 183.772C195.486 186.271 191.908 187.653 188.198 187.648Z" fill="#3F3D56"/>
<path d="M54.2313 249.57L59.4851 249.569L61.9849 229.312L54.23 229.312L54.2313 249.57Z" fill="#FFB8B8"/>
<path d="M69.6182 254.446L53.1052 254.446L53.1049 248.069L63.2379 248.069C64.9299 248.069 66.5528 248.74 67.7493 249.936C68.9458 251.132 69.6181 252.754 69.6182 254.446L69.6182 254.446Z" fill="#2F2E41"/>
<path d="M35.3743 249.57L40.6281 249.569L43.128 229.312L35.373 229.312L35.3743 249.57Z" fill="#FFB8B8"/>
<path d="M50.7612 254.446L34.2482 254.446L34.248 248.069L44.3809 248.069C46.073 248.069 47.6958 248.74 48.8924 249.936C50.0889 251.132 50.7612 252.754 50.7612 254.446L50.7612 254.446Z" fill="#2F2E41"/>
<path d="M39.9659 243.339L34.8338 243.07C34.5692 243.056 34.3099 242.989 34.0711 242.875C33.8323 242.76 33.6186 242.599 33.4425 242.401C33.2663 242.203 33.1312 241.972 33.045 241.722C32.9588 241.471 32.9232 241.206 32.9402 240.942L39.0741 173.058L67.3214 180.677L70.0429 179.935L61.5323 240.03C61.4598 240.482 61.2352 240.896 60.8956 241.203C60.556 241.511 60.1217 241.693 59.6645 241.72L54.1322 241.978C53.8555 241.993 53.5787 241.951 53.3192 241.854C53.0597 241.757 52.8232 241.607 52.6246 241.414C52.426 241.221 52.2696 240.989 52.1653 240.732C52.061 240.476 52.0111 240.2 52.0187 239.923L53.0211 203.855C53.0258 203.688 52.9678 203.526 52.8586 203.4C52.7494 203.273 52.5969 203.193 52.4311 203.173C52.2653 203.154 52.0982 203.197 51.9629 203.295C51.8275 203.393 51.7336 203.537 51.6998 203.701L42.0326 241.747C41.9414 242.198 41.6963 242.604 41.3392 242.895C40.9821 243.186 40.5351 243.344 40.0744 243.342C40.0385 243.342 40.0023 243.342 39.9659 243.339Z" fill="#2F2E41"/>
<path d="M55.1745 117.514C60.9879 117.514 65.7005 112.803 65.7005 106.992C65.7005 101.182 60.9879 96.4709 55.1745 96.4709C49.3611 96.4709 44.6484 101.182 44.6484 106.992C44.6484 112.803 49.3611 117.514 55.1745 117.514Z" fill="#FFB8B8"/>
<path d="M37.6493 137.904L38.8067 162.865L39.2251 171.946C39.2417 172.341 39.376 172.723 39.6107 173.041C39.8454 173.36 40.1699 173.601 40.5426 173.735L67.6863 183.563C67.9056 183.645 68.1379 183.685 68.3719 183.683C68.6392 183.685 68.9041 183.632 69.1507 183.529C69.3973 183.425 69.6205 183.274 69.807 183.082C69.9936 182.891 70.1396 182.664 70.2365 182.414C70.3333 182.165 70.3789 181.899 70.3706 181.632L69.2577 136.752C69.1846 133.07 67.8286 129.528 65.4234 126.738C63.0182 123.948 59.7146 122.084 56.082 121.468C55.8195 121.428 55.5523 121.388 55.2852 121.353C53.0327 121.073 50.7463 121.29 48.5869 121.989C46.4274 122.688 44.4474 123.851 42.7861 125.397C41.0658 126.979 39.7141 128.918 38.8265 131.08C37.9388 133.241 37.537 135.571 37.6493 137.904L37.6493 137.904Z" fill="#CCCCCC"/>
<path d="M80.6531 178.583C80.0111 178.383 79.4245 178.037 78.9403 177.571C78.456 177.105 78.0874 176.532 77.8639 175.899C77.6403 175.265 77.5681 174.588 77.6529 173.921C77.7377 173.255 77.9771 172.617 78.3522 172.06L69.1475 159.825L77.0906 159.334L84.6138 171.027C85.4192 171.65 85.9797 172.536 86.1969 173.53C86.4141 174.524 86.2741 175.563 85.8016 176.464C85.3291 177.366 84.5541 178.072 83.6127 178.459C82.6713 178.847 81.6235 178.89 80.6531 178.583H80.6531Z" fill="#FFB8B8"/>
<path d="M74.1812 169.846C73.9373 169.747 73.7155 169.601 73.5286 169.415C73.3416 169.23 73.1933 169.01 73.0922 168.767L59.2245 135.741C58.9524 135.094 58.8104 134.4 58.8067 133.699C58.803 132.998 58.9376 132.302 59.2029 131.653C59.4682 131.003 59.8589 130.412 60.3527 129.914C60.8465 129.416 61.4338 129.019 62.0809 128.748C62.728 128.476 63.4223 128.335 64.124 128.332C64.8258 128.329 65.5214 128.464 66.1709 128.729C66.8204 128.995 67.4112 129.386 67.9094 129.88C68.4077 130.374 68.8037 130.961 69.0748 131.608L82.9425 164.635C83.1475 165.124 83.1497 165.675 82.9488 166.167C82.7479 166.658 82.3603 167.05 81.8709 167.256L75.7143 169.838C75.472 169.941 75.2116 169.994 74.9485 169.996C74.6853 169.997 74.4245 169.946 74.1812 169.846L74.1812 169.846Z" fill="#CCCCCC"/>
<path d="M51.7901 168.681L65.1097 143.188C65.3665 142.698 65.8075 142.33 66.3357 142.164C66.864 141.998 67.4364 142.049 67.9275 142.304L87.2608 152.397C87.7513 152.654 88.1198 153.095 88.2856 153.623C88.4514 154.151 88.4009 154.723 88.1451 155.214L74.8256 180.706C74.5687 181.196 74.1278 181.565 73.5995 181.731C73.0713 181.896 72.4988 181.846 72.0078 181.59L52.6745 171.497C52.184 171.241 51.8154 170.8 51.6496 170.272C51.4839 169.744 51.5344 169.172 51.7901 168.681Z" fill="#3F3D56"/>
<path d="M60.7229 157.034C60.4861 156.405 60.1055 155.84 59.6116 155.385C59.1176 154.929 58.5239 154.595 57.8779 154.409C57.2319 154.224 56.5514 154.191 55.8907 154.315C55.2301 154.439 54.6075 154.716 54.0728 155.123L41.3108 146.661L41.2891 154.616L53.4114 161.432C54.0806 162.199 54.9986 162.706 56.0043 162.864C57.01 163.022 58.0392 162.821 58.9115 162.296C59.7838 161.772 60.4434 160.957 60.7746 159.994C61.1058 159.032 61.0875 157.984 60.7229 157.034Z" fill="#FFB8B8"/>
<path d="M44.5872 158.823L34.1573 150.565C33.029 150.186 32.0094 149.539 31.1862 148.68C30.363 147.821 29.7607 146.775 29.431 145.631C29.1012 144.488 29.0539 143.282 29.2932 142.117C29.5324 140.951 30.051 139.861 30.8044 138.94L40.2745 126.535C40.9326 125.731 41.8582 125.19 42.8819 125.013C43.9057 124.835 44.9593 125.031 45.8502 125.566C46.7411 126.1 47.4098 126.938 47.734 127.924C48.0581 128.911 48.0161 129.982 47.6157 130.94L40.1227 143.192L51.1343 148.413C51.3904 148.534 51.6178 148.708 51.8014 148.924C51.9851 149.14 52.1209 149.392 52.1998 149.664C52.2787 149.936 52.299 150.222 52.2592 150.502C52.2195 150.783 52.1206 151.052 51.9692 151.291L47.5242 158.323C47.374 158.56 47.1755 158.763 46.9417 158.919C46.708 159.075 46.444 159.18 46.1671 159.227C46.1561 159.229 46.145 159.231 46.134 159.232C45.8618 159.273 45.5842 159.258 45.3181 159.188C45.0521 159.117 44.8033 158.993 44.5872 158.823Z" fill="#CCCCCC"/>
<path d="M47.2209 114.038C47.1758 113.906 47.1614 113.765 47.179 113.627C47.1967 113.488 47.2457 113.356 47.3225 113.239C47.3993 113.123 47.5018 113.025 47.6221 112.954C47.7424 112.883 47.8773 112.841 48.0165 112.83C48.3016 112.846 48.5806 112.919 48.8366 113.045C49.0927 113.171 49.3205 113.348 49.5062 113.565C49.8872 114.004 50.3307 114.385 50.8224 114.695C51.3316 114.951 52.0222 114.915 52.3125 114.425C52.5851 113.966 52.3983 113.351 52.2333 112.818C51.8134 111.46 51.5784 110.052 51.5348 108.632C51.4872 107.047 51.711 105.393 52.5889 104.156C53.722 102.561 55.7481 101.955 57.6655 101.999C59.5829 102.043 61.4692 102.635 63.3685 103.009C64.0242 103.138 64.7949 103.204 65.2334 102.696C65.6997 102.156 65.5285 101.281 65.3301 100.552C64.8154 98.6598 64.2694 96.7033 63.0736 95.175C61.7806 93.5869 59.9337 92.5476 57.9047 92.2662C55.9568 92.025 53.9795 92.2494 52.1352 92.9209C49.1305 93.8676 46.4865 95.7087 44.5569 98.198C42.5678 100.845 41.7083 104.172 42.1663 107.451C42.6138 110.307 44.1278 112.887 46.4031 114.671L47.2209 114.038Z" fill="#2F2E41"/>
<path d="M180.537 249.653C177.737 248.434 175.258 246.581 173.297 244.24C171.335 241.899 169.945 239.135 169.236 236.165C168.526 233.195 168.517 230.101 169.209 227.128C169.9 224.154 171.274 221.381 173.221 219.029C170.964 220.676 169.082 222.785 167.702 225.215C166.322 227.645 165.475 230.341 165.217 233.123C164.959 235.906 165.296 238.711 166.205 241.353C167.115 243.996 168.576 246.414 170.492 248.449C172.408 250.484 174.736 252.087 177.319 253.154C179.903 254.221 182.684 254.727 185.478 254.637C188.272 254.547 191.015 253.864 193.525 252.634C196.035 251.404 198.255 249.654 200.036 247.501C197.257 249.531 193.995 250.798 190.574 251.175C187.153 251.553 183.692 251.028 180.537 249.653Z" fill="#3F3D56"/>
</g>
<defs>
<clipPath id="clip0">
<rect width="362" height="255" fill="white"/>
</clipPath>
</defs>
</svg>
